<mxfile host="app.diagrams.net" agent="Mozilla/5.0 (iPhone; CPU iPhone OS 18_1_1 like Mac OS X) AppleWebKit/605.1.15 (KHTML, like Gecko) Version/18.1.1 Mobile/15E148 Safari/604.1" version="25.0.1">
  <diagram name="Page-1" id="6ApDtA1KDB_8BTe6wzJH">
    <mxGraphModel dx="358" dy="559" grid="0" gridSize="10" guides="1" tooltips="1" connect="1" arrows="1" fold="1" page="0" pageScale="1" pageWidth="827" pageHeight="1169" math="0" shadow="0">
      <root>
        <mxCell id="0" />
        <mxCell id="1" parent="0" />
        <mxCell id="-LiY8b1KqQ9Jb-AwqJkG-1" value="Test" style="whiteSpace=wrap;html=1;" vertex="1" parent="1">
          <mxGeometry x="12" y="66" width="120" height="60" as="geometry" />
        </mxCell>
        <mxCell id="-LiY8b1KqQ9Jb-AwqJkG-3" value="" style="edgeStyle=none;curved=1;rounded=0;orthogonalLoop=1;jettySize=auto;html=1;fontSize=12;startSize=8;endSize=8;" edge="1" parent="1" source="-LiY8b1KqQ9Jb-AwqJkG-2" target="-LiY8b1KqQ9Jb-AwqJkG-1">
          <mxGeometry relative="1" as="geometry" />
        </mxCell>
        <mxCell id="-LiY8b1KqQ9Jb-AwqJkG-2" value="DruhÃ½" style="ellipse;whiteSpace=wrap;html=1;" vertex="1" parent="1">
          <mxGeometry x="32" y="194" width="80" height="80" as="geometry" />
        </mxCell>
      </root>
    </mxGraphModel>
  </diagram>
</mxfile>
